<svg width="24" height="24" viewBox="0 0 24 24" fill="none" xmlns="http://www.w3.org/2000/svg">
<path d="M3.97501 21V18H7.07501L4.52501 9.64999C4.07501 9.39999 3.70417 9.03333 3.41251 8.54999C3.12084 8.06666 2.97501 7.54999 2.97501 6.99999C2.97501 6.16666 3.26667 5.45833 3.85001 4.87499C4.43334 4.29166 5.14167 3.99999 5.97501 3.99999C6.62501 3.99999 7.20417 4.18749 7.71251 4.56249C8.22084 4.93749 8.57501 5.41666 8.77501 5.99999H11.975V4.99999C11.975 4.71666 12.0708 4.47916 12.2625 4.28749C12.4542 4.09583 12.6917 3.99999 12.975 3.99999C13.125 3.99999 13.2708 4.03333 13.4125 4.09999C13.5542 4.16666 13.675 4.26666 13.775 4.39999L15.475 2.79999C15.625 2.64999 15.8042 2.55416 16.0125 2.51249C16.2208 2.47083 16.425 2.49999 16.625 2.59999L20.525 4.39999C20.725 4.49999 20.8625 4.64583 20.9375 4.83749C21.0125 5.02916 21.0083 5.21666 20.925 5.39999C20.825 5.59999 20.6792 5.72916 20.4875 5.78749C20.2958 5.84583 20.1083 5.83333 19.925 5.74999L16.325 4.09999L13.975 6.29999V7.69999L16.325 9.84999L19.925 8.19999C20.1083 8.11666 20.3 8.10833 20.5 8.17499C20.7 8.24166 20.8417 8.36666 20.925 8.54999C21.025 8.74999 21.0333 8.94166 20.95 9.12499C20.8667 9.30833 20.725 9.44999 20.525 9.54999L16.625 11.4C16.425 11.5 16.2208 11.5292 16.0125 11.4875C15.8042 11.4458 15.625 11.35 15.475 11.2L13.775 9.59999C13.675 9.69999 13.5542 9.79166 13.4125 9.87499C13.2708 9.95833 13.125 9.99999 12.975 9.99999C12.6917 9.99999 12.4542 9.90416 12.2625 9.71249C12.0708 9.52083 11.975 9.28333 11.975 8.99999V7.99999H8.77501C8.72501 8.13333 8.67084 8.25833 8.61251 8.37499C8.55417 8.49166 8.47501 8.61666 8.37501 8.74999L13.375 18H16.975V21H3.97501ZM5.97501 7.99999C6.25834 7.99999 6.49584 7.90416 6.68751 7.71249C6.87917 7.52083 6.97501 7.28333 6.97501 6.99999C6.97501 6.71666 6.87917 6.47916 6.68751 6.28749C6.49584 6.09583 6.25834 5.99999 5.97501 5.99999C5.69167 5.99999 5.45417 6.09583 5.26251 6.28749C5.07084 6.47916 4.97501 6.71666 4.97501 6.99999C4.97501 7.28333 5.07084 7.52083 5.26251 7.71249C5.45417 7.90416 5.69167 7.99999 5.97501 7.99999ZM9.12501 18H11.075L6.77501 9.99999H6.67501L9.12501 18Z" fill="#240F66"/>
</svg>
