<svg width="24" height="24" viewBox="0 0 24 24" fill="none" xmlns="http://www.w3.org/2000/svg">
<path d="M17.275 20.25L20.75 16.8L19.7 15.75L17.275 18.125L16.3 17.15L15.25 18.225L17.275 20.25ZM6 9H18V7H6V9ZM18 23C16.6167 23 15.4375 22.5125 14.4625 21.5375C13.4875 20.5625 13 19.3833 13 18C13 16.6167 13.4875 15.4375 14.4625 14.4625C15.4375 13.4875 16.6167 13 18 13C19.3833 13 20.5625 13.4875 21.5375 14.4625C22.5125 15.4375 23 16.6167 23 18C23 19.3833 22.5125 20.5625 21.5375 21.5375C20.5625 22.5125 19.3833 23 18 23ZM3 22V5C3 4.45 3.19583 3.97917 3.5875 3.5875C3.97917 3.19583 4.45 3 5 3H19C19.55 3 20.0208 3.19583 20.4125 3.5875C20.8042 3.97917 21 4.45 21 5V11.675C20.6833 11.525 20.3583 11.4 20.025 11.3C19.6917 11.2 19.35 11.125 19 11.075V5H5V19.05H11.075C11.1583 19.5667 11.2875 20.0583 11.4625 20.525C11.6375 20.9917 11.8667 21.4333 12.15 21.85L12 22L10.5 20.5L9 22L7.5 20.5L6 22L4.5 20.5L3 22ZM6 17H11.075C11.125 16.65 11.2 16.3083 11.3 15.975C11.4 15.6417 11.525 15.3167 11.675 15H6V17ZM6 13H13.1C13.7333 12.3833 14.4708 11.8958 15.3125 11.5375C16.1542 11.1792 17.05 11 18 11H6V13Z" fill="#240F66"/>
</svg>
